<svg width="1739" height="450" viewBox="0 0 1739 450" fill="none" xmlns="http://www.w3.org/2000/svg">
<path d="M337.561 323C345.366 309 351.22 293 351.22 275C351.22 225 312.195 185 263.415 185C214.634 185 175.61 225 175.61 275C175.61 325 214.634 365 263.415 365C280.976 365 296.585 359 310.244 351L372.683 415L400 387L337.561 323ZM263.415 325C236.098 325 214.634 303 214.634 275C214.634 247 236.098 225 263.415 225C290.732 225 312.195 247 312.195 275C312.195 303 290.732 325 263.415 325ZM195.122 385V425C87.4146 425 0 335.4 0 225C0 114.6 87.4146 25 195.122 25C289.561 25 368.195 93.8 386.341 185H345.951C339.865 160.837 328.35 138.468 312.325 119.68C296.299 100.893 276.209 86.2083 253.659 76.8V85C253.659 107 236.098 125 214.634 125H175.61V165C175.61 176 166.829 185 156.098 185H117.073V225H156.098V285H136.585L43.122 189.2C40.5854 200.8 39.0244 212.6 39.0244 225C39.0244 313.2 109.073 385 195.122 385Z" fill="url(#paint0_linear_41_7)"/>
<path d="M635.5 183.6C630.7 174.8 624.1 168.1 615.7 163.5C607.3 158.9 597.5 156.6 586.3 156.6C573.9 156.6 562.9 159.4 553.3 165C543.7 170.6 536.2 178.6 530.8 189C525.4 199.4 522.7 211.4 522.7 225C522.7 239 525.4 251.2 530.8 261.6C536.4 272 544.1 280 553.9 285.6C563.7 291.2 575.1 294 588.1 294C604.1 294 617.2 289.8 627.4 281.4C637.6 272.8 644.3 260.9 647.5 245.7H575.5V213.6H688.9V250.2C686.1 264.8 680.1 278.3 670.9 290.7C661.7 303.1 649.8 313.1 635.2 320.7C620.8 328.1 604.6 331.8 586.6 331.8C566.4 331.8 548.1 327.3 531.7 318.3C515.5 309.1 502.7 296.4 493.3 280.2C484.1 264 479.5 245.6 479.5 225C479.5 204.4 484.1 186 493.3 169.8C502.7 153.4 515.5 140.7 531.7 131.7C548.1 122.5 566.3 117.9 586.3 117.9C609.9 117.9 630.4 123.7 647.8 135.3C665.2 146.7 677.2 162.8 683.8 183.6H635.5ZM761.973 108V330H719.973V108H761.973ZM877.27 332.7C861.27 332.7 846.87 329.2 834.07 322.2C821.27 315 811.17 304.9 803.77 291.9C796.57 278.9 792.97 263.9 792.97 246.9C792.97 229.9 796.67 214.9 804.07 201.9C811.67 188.9 821.97 178.9 834.97 171.9C847.97 164.7 862.47 161.1 878.47 161.1C894.47 161.1 908.97 164.7 921.97 171.9C934.97 178.9 945.17 188.9 952.57 201.9C960.17 214.9 963.97 229.9 963.97 246.9C963.97 263.9 960.07 278.9 952.27 291.9C944.67 304.9 934.27 315 921.07 322.2C908.07 329.2 893.47 332.7 877.27 332.7ZM877.27 296.1C884.87 296.1 891.97 294.3 898.57 290.7C905.37 286.9 910.77 281.3 914.77 273.9C918.77 266.5 920.77 257.5 920.77 246.9C920.77 231.1 916.57 219 908.17 210.6C899.97 202 889.87 197.7 877.87 197.7C865.87 197.7 855.77 202 847.57 210.6C839.57 219 835.57 231.1 835.57 246.9C835.57 262.7 839.47 274.9 847.27 283.5C855.27 291.9 865.27 296.1 877.27 296.1ZM1036.78 188.1C1042.18 180.1 1049.58 173.6 1058.98 168.6C1068.58 163.6 1079.48 161.1 1091.68 161.1C1105.88 161.1 1118.68 164.6 1130.08 171.6C1141.68 178.6 1150.78 188.6 1157.38 201.6C1164.18 214.4 1167.58 229.3 1167.58 246.3C1167.58 263.3 1164.18 278.4 1157.38 291.6C1150.78 304.6 1141.68 314.7 1130.08 321.9C1118.68 329.1 1105.88 332.7 1091.68 332.7C1079.28 332.7 1068.38 330.3 1058.98 325.5C1049.78 320.5 1042.38 314.1 1036.78 306.3V330H994.778V108H1036.78V188.1ZM1124.68 246.3C1124.68 236.3 1122.58 227.7 1118.38 220.5C1114.38 213.1 1108.98 207.5 1102.18 203.7C1095.58 199.9 1088.38 198 1080.58 198C1072.98 198 1065.78 200 1058.98 204C1052.38 207.8 1046.98 213.4 1042.78 220.8C1038.78 228.2 1036.78 236.9 1036.78 246.9C1036.78 256.9 1038.78 265.6 1042.78 273C1046.98 280.4 1052.38 286.1 1058.98 290.1C1065.78 293.9 1072.98 295.8 1080.58 295.8C1088.38 295.8 1095.58 293.8 1102.18 289.8C1108.98 285.8 1114.38 280.1 1118.38 272.7C1122.58 265.3 1124.68 256.5 1124.68 246.3ZM1271.9 332.7C1255.9 332.7 1241.5 329.2 1228.7 322.2C1215.9 315 1205.8 304.9 1198.4 291.9C1191.2 278.9 1187.6 263.9 1187.6 246.9C1187.6 229.9 1191.3 214.9 1198.7 201.9C1206.3 188.9 1216.6 178.9 1229.6 171.9C1242.6 164.7 1257.1 161.1 1273.1 161.1C1289.1 161.1 1303.6 164.7 1316.6 171.9C1329.6 178.9 1339.8 188.9 1347.2 201.9C1354.8 214.9 1358.6 229.9 1358.6 246.9C1358.6 263.9 1354.7 278.9 1346.9 291.9C1339.3 304.9 1328.9 315 1315.7 322.2C1302.7 329.2 1288.1 332.7 1271.9 332.7ZM1271.9 296.1C1279.5 296.1 1286.6 294.3 1293.2 290.7C1300 286.9 1305.4 281.3 1309.4 273.9C1313.4 266.5 1315.4 257.5 1315.4 246.9C1315.4 231.1 1311.2 219 1302.8 210.6C1294.6 202 1284.5 197.7 1272.5 197.7C1260.5 197.7 1250.4 202 1242.2 210.6C1234.2 219 1230.2 231.1 1230.2 246.9C1230.2 262.7 1234.1 274.9 1241.9 283.5C1249.9 291.9 1259.9 296.1 1271.9 296.1ZM1589.29 290.1H1505.89L1492.09 330H1447.99L1523.29 120.3H1572.19L1647.49 330H1603.09L1589.29 290.1ZM1577.89 256.5L1547.59 168.9L1517.29 256.5H1577.89ZM1717.64 120.6V330H1675.64V120.6H1717.64Z" fill="black"/>
<defs>
<linearGradient id="paint0_linear_41_7" x1="0" y1="25" x2="422.329" y2="399.843" gradientUnits="userSpaceOnUse">
<stop offset="0.264198" stop-color="#00456D"/>
<stop offset="1" stop-color="#00AB03"/>
</linearGradient>
</defs>
</svg>
