<svg width="760" height="716" viewBox="0 0 760 716" fill="none" xmlns="http://www.w3.org/2000/svg">
<path d="M641.366 533.42C656.195 508.36 667.317 479.72 667.317 447.5C667.317 358 593.171 286.4 500.488 286.4C407.805 286.4 333.659 358 333.659 447.5C333.659 537 407.805 608.6 500.488 608.6C533.854 608.6 563.512 597.86 589.463 583.54L708.098 698.1L760 647.98L641.366 533.42ZM500.488 537C448.585 537 407.805 497.62 407.805 447.5C407.805 397.38 448.585 358 500.488 358C552.39 358 593.171 397.38 593.171 447.5C593.171 497.62 552.39 537 500.488 537ZM370.732 644.4V716C166.088 716 0 555.616 0 358C0 160.384 166.088 0 370.732 0C550.166 0 699.571 123.152 734.049 286.4H657.307C645.744 243.148 623.865 203.107 593.417 169.478C562.969 135.848 524.797 109.563 481.951 92.722V107.4C481.951 146.78 448.585 179 407.805 179H333.659V250.6C333.659 270.29 316.976 286.4 296.585 286.4H222.439V358H296.585V465.4H259.512L81.9317 293.918C77.1122 314.682 74.1463 335.804 74.1463 358C74.1463 515.878 207.239 644.4 370.732 644.4Z" fill="url(#paint0_linear_34_3)"/>
<defs>
<linearGradient id="paint0_linear_34_3" x1="0" y1="0" x2="760" y2="716" gradientUnits="userSpaceOnUse">
<stop offset="0.264198" stop-color="#00456D"/>
<stop offset="1" stop-color="#00AB03"/>
</linearGradient>
</defs>
</svg>
